<svg xmlns="http://www.w3.org/2000/svg" width="14" height="20" viewBox="0 0 14 20"><defs><style>.cls-1{fill:#2c9cd7;fill-rule:evenodd}</style></defs><path class="cls-1" d="M12 7h-1V4a4 4 0 0 0-8 0 .5.5 0 0 0 .51.4A.476.476 0 0 0 4 4a2.961 2.961 0 0 1 3-3 3.019 3.019 0 0 1 3.09 2.977L10 7H2C.88 7 0 8.307 0 9.557l.73 8.244A2.119 2.119 0 0 0 2.76 20h8.47a2.119 2.119 0 0 0 2.04-2.17L14 9.514C14 8.284 13.14 7 12 7zm.5 10.784A1.4 1.4 0 0 1 11 19H3a1.383 1.383 0 0 1-1.5-1.24L.77 9.516A1.427 1.427 0 0 1 2 8h10a1.409 1.409 0 0 1 1.23 1.469zM7 11c-.87 0-3 1.021-3 2l1 3a2.455 2.455 0 0 0 1 1h2a2.457 2.457 0 0 0 1-1l1-3c0-.924-2.13-2-3-2zm1 5H6l-1-3c0-.462 1.56-1 2-1s2 .584 2 1z"/></svg>