<svg xmlns="http://www.w3.org/2000/svg" width="20.06" height="20.125" viewBox="0 0 20.06 20.125"><defs><style>.cls-1{fill:#2744b6;fill-rule:evenodd}</style></defs><path class="cls-1" d="M17.33 20H12.2c-.23 0-.17.242-.17 0v-8h-4v8c0 .242.07 0-.16 0H2.73c-.59 0-.7-.373-.7-1v-8c-.14.029-.65-.375-.8-.375a1.059 1.059 0 0 1-.86-.37A1.625 1.625 0 0 1 .55 8.07L9.07.359a1.426 1.426 0 0 1 1.82-.064.414.414 0 0 1 .11.064l8.52 7.711a1.624 1.624 0 0 1 .17 2.185.983.983 0 0 1-.66.745c-.15 0-.86.029-1 0v8c0 .626-.11 1-.7 1zm-4.3-1h4c.13 0-.36.035 0 0v-9a4.955 4.955 0 0 1 1 0c.12-.081-.13-.058 0 0a7.089 7.089 0 0 0 1 0c.1 0-.01-.271.01-.3a.715.715 0 0 0-.07-.965l-8.46-7.652a.62.62 0 0 1-.09-.059.6.6 0 0 0-.8 0L1.09 8.735a.715.715 0 0 0-.07.965c.03.033-.09.3.01.3a7.089 7.089 0 0 0 1 0c.13-.06-.12-.081 0 0a4.955 4.955 0 0 1 1 0v9c0 .143-.13 0 0 0h4v-7a2.06 2.06 0 0 1 1-1h4a2.06 2.06 0 0 1 1 1v7z"/></svg>