<svg xmlns="http://www.w3.org/2000/svg" width="21.844" height="21.03" viewBox="0 0 21.844 21.03"><defs><style>.cls-1{fill:#fff;fill-rule:evenodd}</style></defs><path id="linkedin_" data-name="linkedin" class="cls-1" d="M904.278 1647.38a5.038 5.038 0 0 1 4.525-2.64c3.05.22 5.273 2.19 5.429 6.6l-4.524-.88a2.315 2.315 0 0 0-2.262-1.76c-1.787.09-2.345.35-3.168 1.32s0-2.64 0-2.64zm-11.311-2.47h4.524v14.27h-4.524v-14.27zm6.787.75h4.524v13.52h-4.524v-13.52zm9.8 4.51h4.524v9.01h-4.524v-9.01zm-14.479-12.02a2.7 2.7 0 1 1-2.714 2.69 2.706 2.706 0 0 1 2.717-2.69z" transform="translate(-892.375 -1638.16)"/></svg>