<svg xmlns="http://www.w3.org/2000/svg" width="19.62" height="19.53" viewBox="0 0 19.62 19.53"><defs><style>.cls-1{fill:#fff;fill-rule:evenodd}</style></defs><path id="instagram_" data-name="instagram" class="cls-1" d="M1083.23 1658.21h-16.59a1.452 1.452 0 0 1-1.51-1.5v-16.52a1.3 1.3 0 0 1 1.29-1.52h16.72a1.594 1.594 0 0 1 1.6 1.58v16.59a1.353 1.353 0 0 1-1.51 1.37zm-8.45-13.22a3.555 3.555 0 1 0 3.59 3.56 3.572 3.572 0 0 0-3.59-3.56zm7.69-2.87a1.2 1.2 0 0 0-1.2-1.2h-1.21a1.2 1.2 0 0 0-1.21 1.2v1.2a1.2 1.2 0 0 0 1.21 1.19h1.21a1.2 1.2 0 0 0 1.2-1.19v-1.2zm0 4.07h-1.5a14.1 14.1 0 0 1 .18 2.36 6.37 6.37 0 0 1-12.74 0 14.326 14.326 0 0 1 .49-2.36h-1.51v9.02a.733.733 0 0 0 .76.75h13.57a.666.666 0 0 0 .75-.68v-9.09z" transform="translate(-1065.13 -1638.69)"/></svg>