<svg xmlns="http://www.w3.org/2000/svg" width="22.656" height="18.41" viewBox="0 0 22.656 18.41"><defs><style>.cls-1{fill:#fff;fill-rule:evenodd}</style></defs><path id="twitter_" data-name="twitter" class="cls-1" d="M855.973 1642.14l2.278-.45a19.472 19.472 0 0 1-2.278 2.25.109.109 0 0 0-.011-.01 7.067 7.067 0 0 0 .011 1.35c-4.353 18.51-20.375 10.33-20.375 10.33 5.829.15 6.349-2.25 6.349-2.25-3.414-.51-4.072-2.69-4.072-2.69a1.436 1.436 0 0 0 1.81-.45 4.051 4.051 0 0 1-3.167-4.49 4.325 4.325 0 0 0 2.22.85c-.417-.48-3.855-4.57-1.768-6.68 0 0 2.511 4.48 9.163 4.91l.444-.11a4.711 4.711 0 0 1 4.645-5.7c3.163 0 3.846 1.8 3.846 1.8l2.263-1.35s-.249 2.25-1.358 2.69z" transform="translate(-835.594 -1639)"/></svg>