<svg xmlns="http://www.w3.org/2000/svg" width="23.531" height="13.59" viewBox="0 0 23.531 13.59"><defs><style>.cls-1{fill:#fff;fill-rule:evenodd}</style></defs><path id="vk_-_international" data-name="vk - international" class="cls-1" d="M960.134 1655.44h1.406a1.181 1.181 0 0 0 .642-.29 1.031 1.031 0 0 0 .193-.62s-.027-1.91.848-2.19 1.972 1.83 3.147 2.64a2.158 2.158 0 0 0 1.564.46h3.142s1.643-.13.864-1.42a10.526 10.526 0 0 0-2.336-2.72c-1.971-1.84-1.707-1.54.667-4.72 1.445-1.93 2.023-3.11 1.842-3.62a.743.743 0 0 0-.868-.3h-3.77a.915.915 0 0 0-.591-.01 1.039 1.039 0 0 0-.312.41 19.927 19.927 0 0 1-1.307 2.8c-1.575 2.69-2.205 2.83-2.463 2.66-.6-.39-.449-1.56-.449-2.39 0-2.61.393-3.69-.766-3.97a5.685 5.685 0 0 0-1.651-.17 7.816 7.816 0 0 0-2.935.3c-.4.2-.713.64-.524.67a1.583 1.583 0 0 1 1.044.52 3.453 3.453 0 0 1 .35 1.61s.208 3.07-.486 3.45c-.477.26-1.131-.27-2.536-2.71a22.014 22.014 0 0 1-1.262-2.66 1.075 1.075 0 0 0-.292-.39c-.227-.17-.148-.12-.148-.12h-3.77a.861.861 0 0 0-.677.13.758.758 0 0 0-.013.61s2.632 6.23 5.612 9.34a8.15 8.15 0 0 0 5.835 2.7z" transform="translate(-948.625 -1642)"/></svg>