<svg xmlns="http://www.w3.org/2000/svg" width="18.72" height="22.53" viewBox="0 0 18.72 22.53"><defs><style>.cls-1{fill:#fff;fill-rule:evenodd}</style></defs><path id="YouTube" class="cls-1" d="M1134.21 1653.11c0-.55-.17-.84-.5-.84a.776.776 0 0 0-.56.28v3.78a.776.776 0 0 0 .56.28c.33 0 .5-.28.5-.84v-2.66zm4.26.02c0-.57-.19-.86-.57-.86s-.56.29-.56.86v.57h1.13v-.57zm-12.19-2.74v7.15h-1.26v-7.15h-1.33v-1.19h3.94v1.19h-1.35zm3.63 7.15v-.68a1.811 1.811 0 0 1-1.28.77.7.7 0 0 1-.74-.47 3.185 3.185 0 0 1-.1-.92v-4.91h1.13v4.57a3.486 3.486 0 0 0 .01.44.254.254 0 0 0 .26.27 1.006 1.006 0 0 0 .72-.53v-4.75h1.13v6.21h-1.13zm5.42-1.86a4.861 4.861 0 0 1-.11 1.26.9.9 0 0 1-.9.69 1.554 1.554 0 0 1-1.17-.69v.6h-1.13v-8.34h1.13v2.73a1.523 1.523 0 0 1 1.17-.68.893.893 0 0 1 .9.71 4.59 4.59 0 0 1 .11 1.24v2.48zm4.27-.13a4.078 4.078 0 0 1-.03.73 1.487 1.487 0 0 1-.26.68 1.58 1.58 0 0 1-1.37.67 1.626 1.626 0 0 1-1.36-.64 2.389 2.389 0 0 1-.37-1.46v-2.18a2.414 2.414 0 0 1 .36-1.46 1.723 1.723 0 0 1 2.68 0 2.492 2.492 0 0 1 .35 1.46v1.3h-2.26v1.09c0 .58.19.87.58.87a.482.482 0 0 0 .5-.45 6.9 6.9 0 0 0 .03-.77h1.15v.16zm-7.68-11.48c0 .58-.16.88-.54.88s-.54-.3-.54-.88v-2.64c0-.57.17-.86.54-.86s.54.29.54.86v2.64zm9.08 9.45a19.517 19.517 0 0 0-.33-4.4 2.369 2.369 0 0 0-2.02-1.84 98.125 98.125 0 0 0-14 0 2.38 2.38 0 0 0-2.03 1.84 20.115 20.115 0 0 0-.33 4.4 19.649 19.649 0 0 0 .33 4.4 2.347 2.347 0 0 0 2.02 1.82 94.5 94.5 0 0 0 14.01 0 2.358 2.358 0 0 0 2.02-1.82 20.9 20.9 0 0 0 .33-4.4zm-12.6-16.05l-.86 3.31-.9-3.31h-1.33c.26.78.54 1.58.82 2.35a21.5 21.5 0 0 1 .77 2.67v3.41h1.26v-3.41l1.53-5.02h-1.29zm4.67 4.19a2.413 2.413 0 0 0-.35-1.47 1.712 1.712 0 0 0-2.67 0 2.413 2.413 0 0 0-.35 1.47v2.2a2.467 2.467 0 0 0 .35 1.48 1.7 1.7 0 0 0 2.67 0 2.447 2.447 0 0 0 .35-1.48v-2.2zm4.23-2.04h-1.15v4.79a.971.971 0 0 1-.72.54.275.275 0 0 1-.27-.27 3.6 3.6 0 0 1-.01-.44v-4.62H1134v4.96a3.3 3.3 0 0 0 .1.94.734.734 0 0 0 .75.47 1.826 1.826 0 0 0 1.3-.78v.69h1.15v-6.28z" transform="translate(-1122.28 -1637.47)"/></svg>