<svg xmlns="http://www.w3.org/2000/svg" width="14" height="20" viewBox="0 0 14 20">
  <defs>
    <style>
      .cls-1 {
        fill: #2c9cd7;
        fill-rule: evenodd;
      }
    </style>
  </defs>
  <path class="cls-1" d="M1477,21h-1V18a4,4,0,0,0-8,0,0.5,0.5,0,0,0,.51.4A0.476,0.476,0,0,0,1469,18a2.961,2.961,0,0,1,3-3,3.019,3.019,0,0,1,3.09,2.977L1475,21h-8c-1.12,0-2,1.307-2,2.557l0.73,8.244A2.119,2.119,0,0,0,1467.76,34h8.47a2.119,2.119,0,0,0,2.04-2.17l0.73-8.316C1479,22.284,1478.14,21,1477,21Zm0.5,10.784A1.4,1.4,0,0,1,1476,33h-8a1.383,1.383,0,0,1-1.5-1.24l-0.73-8.244A1.427,1.427,0,0,1,1467,22h10a1.409,1.409,0,0,1,1.23,1.469ZM1472,25c-0.87,0-3,1.021-3,2l1,3a2.455,2.455,0,0,0,1,1h2a2.457,2.457,0,0,0,1-1l1-3C1475,26.076,1472.87,25,1472,25Zm1,5h-2l-1-3c0-.462,1.56-1,2-1s2,0.584,2,1Z" transform="translate(-1465 -14)"/>
</svg>
