<svg xmlns="http://www.w3.org/2000/svg" width="20.06" height="20.125" viewBox="0 0 20.06 20.125">
  <defs>
    <style>
      .cls-1 {
        fill: #2744b6;
        fill-rule: evenodd;
      }
    </style>
  </defs>
  <path class="cls-1" d="M1371.3,34h-5.13c-0.23,0-.17.242-0.17,0V26h-4v8c0,0.242.07,0-.16,0h-5.14c-0.59,0-.7-0.373-0.7-1V25c-0.14.029-.65-0.375-0.8-0.375a1.059,1.059,0,0,1-.86-0.37,1.625,1.625,0,0,1,.18-2.185l8.52-7.711a1.426,1.426,0,0,1,1.82-.064,0.414,0.414,0,0,1,.11.064l8.52,7.711a1.624,1.624,0,0,1,.17,2.185A0.983,0.983,0,0,1,1373,25c-0.15,0-.86.029-1,0v8C1372,33.626,1371.89,34,1371.3,34Zm-4.3-1h4c0.13,0-.36.035,0,0V24a4.955,4.955,0,0,1,1,0c0.12-.081-0.13-0.058,0,0a7.089,7.089,0,0,0,1,0c0.1,0-.01-0.271.01-0.3a0.715,0.715,0,0,0-.07-0.965l-8.46-7.652a0.62,0.62,0,0,1-.09-0.059,0.6,0.6,0,0,0-.8,0l-8.53,7.711a0.715,0.715,0,0,0-.07.965c0.03,0.033-.09.3,0.01,0.3a7.089,7.089,0,0,0,1,0c0.13-.06-0.12-0.081,0,0a4.955,4.955,0,0,1,1,0v9c0,0.143-.13,0,0,0h4V26a2.06,2.06,0,0,1,1-1h4a2.06,2.06,0,0,1,1,1v7Z" transform="translate(-1353.97 -14)"/>
</svg>
