<svg xmlns="http://www.w3.org/2000/svg" width="13.31" height="21.62" viewBox="0 0 13.31 21.62">
  <defs>
    <style>
      .cls-1 {
        fill: #fff;
        fill-rule: evenodd;
      }
    </style>
  </defs>
  <path id="odnoklasniki" class="cls-1" d="M1017.65,1637.91a5.39,5.39,0,1,1-5.43,5.39A5.414,5.414,0,0,1,1017.65,1637.91Zm0,3.15a2.24,2.24,0,1,1-2.26,2.24A2.247,2.247,0,0,1,1017.65,1641.06Zm0,9.29a5.614,5.614,0,0,0,3.72-.91,1.921,1.921,0,0,1,2.78.46s1.19,2.7-3.25,3.19c0,0-.65.07-0.46,0.46s3.07,2.91,3.25,3.64a1.3,1.3,0,0,1-.46,1.82c-0.95.9-1.7,0.69-3.26-.91s-2.32-2.28-2.32-2.28v-5.47Zm0,0a5.582,5.582,0,0,1-3.71-.91,1.931,1.931,0,0,0-2.79.46s-1.19,2.7,3.25,3.19c0,0,.66.07,0.46,0.46s-3.06,2.91-3.25,3.64-0.48.93,0.47,1.82,1.69,0.69,3.25-.91,2.32-2.28,2.32-2.28v-5.47Z" transform="translate(-1011 -1637.91)"/>
</svg>
