<svg xmlns="http://www.w3.org/2000/svg" width="18.72" height="22.53" viewBox="0 0 18.72 22.53">
  <defs>
    <style>
      .cls-1 {
        fill: #fff;
        fill-rule: evenodd;
      }
    </style>
  </defs>
  <path id="YouTube" class="cls-1" d="M1134.21,1653.11c0-.55-0.17-0.84-0.5-0.84a0.776,0.776,0,0,0-.56.28v3.78a0.776,0.776,0,0,0,.56.28c0.33,0,.5-0.28.5-0.84v-2.66Zm4.26,0.02c0-.57-0.19-0.86-0.57-0.86s-0.56.29-.56,0.86v0.57h1.13v-0.57Zm-12.19-2.74v7.15h-1.26v-7.15h-1.33v-1.19h3.94v1.19h-1.35Zm3.63,7.15v-0.68a1.811,1.811,0,0,1-1.28.77,0.7,0.7,0,0,1-.74-0.47,3.185,3.185,0,0,1-.1-0.92v-4.91h1.13v4.57a3.486,3.486,0,0,0,.01.44,0.254,0.254,0,0,0,.26.27,1.006,1.006,0,0,0,.72-0.53v-4.75h1.13v6.21h-1.13Zm5.42-1.86a4.861,4.861,0,0,1-.11,1.26,0.9,0.9,0,0,1-.9.69,1.554,1.554,0,0,1-1.17-.69v0.6h-1.13v-8.34h1.13v2.73a1.523,1.523,0,0,1,1.17-.68,0.893,0.893,0,0,1,.9.71,4.59,4.59,0,0,1,.11,1.24v2.48Zm4.27-.13a4.078,4.078,0,0,1-.03.73,1.487,1.487,0,0,1-.26.68,1.58,1.58,0,0,1-1.37.67,1.626,1.626,0,0,1-1.36-.64,2.389,2.389,0,0,1-.37-1.46v-2.18a2.414,2.414,0,0,1,.36-1.46,1.723,1.723,0,0,1,2.68,0,2.492,2.492,0,0,1,.35,1.46v1.3h-2.26v1.09c0,0.58.19,0.87,0.58,0.87a0.482,0.482,0,0,0,.5-0.45,6.9,6.9,0,0,0,.03-0.77h1.15v0.16Zm-7.68-11.48c0,0.58-.16.88-0.54,0.88s-0.54-.3-0.54-0.88v-2.64c0-.57.17-0.86,0.54-0.86s0.54,0.29.54,0.86v2.64Zm9.08,9.45a19.517,19.517,0,0,0-.33-4.4,2.369,2.369,0,0,0-2.02-1.84,98.125,98.125,0,0,0-14,0,2.38,2.38,0,0,0-2.03,1.84,20.115,20.115,0,0,0-.33,4.4h0a19.649,19.649,0,0,0,.33,4.4,2.347,2.347,0,0,0,2.02,1.82,94.5,94.5,0,0,0,14.01,0,2.358,2.358,0,0,0,2.02-1.82A20.9,20.9,0,0,0,1141,1653.52Zm-12.6-16.05-0.86,3.31-0.9-3.31h-1.33c0.26,0.78.54,1.58,0.82,2.35a21.5,21.5,0,0,1,.77,2.67v3.41h1.26v-3.41l1.53-5.02h-1.29Zm4.67,4.19a2.413,2.413,0,0,0-.35-1.47,1.712,1.712,0,0,0-2.67,0,2.413,2.413,0,0,0-.35,1.47v2.2a2.467,2.467,0,0,0,.35,1.48,1.7,1.7,0,0,0,2.67,0,2.447,2.447,0,0,0,.35-1.48v-2.2Zm4.23-2.04h-1.15v4.79a0.971,0.971,0,0,1-.72.54,0.275,0.275,0,0,1-.27-0.27,3.6,3.6,0,0,1-.01-0.44v-4.62H1134v4.96a3.3,3.3,0,0,0,.1.94,0.734,0.734,0,0,0,.75.47,1.826,1.826,0,0,0,1.3-.78v0.69h1.15v-6.28Z" transform="translate(-1122.28 -1637.47)"/>
</svg>
